# xmcd
#
# Track frame offsets:
#	150
#	19108
#	36953
#	51717
#	68157
#	80355
#	93663
#	106748
#	123374
#	139392
#	161529
#
# Disc length: 2377 seconds
#
# Revision: 1
# Processed by: cddbd v1.5.2PL0 Copyright (c) Steve Scherf et al.
# Submitted via: audiograbber 1.83.01
#
DISCID=9609470b
DTITLE=Little Rainbow - Bridge
DYEAR=2008
DGENRE=Country
TTITLE0=Like WE Never Loved At All
TTITLE1=The World
TTITLE2=Catalog Dreams
TTITLE3=It's 5 O'Clock Somewhere
TTITLE4=When You Walk In The Room
TTITLE5=We Work It Out
TTITLE6=Bare Essentials
TTITLE7=Closer
TTITLE8=If You're Going Through Hell
TTITLE9=Commitment
TTITLE10=Mexican Wind
EXTD=
EXTT0=
EXTT1=
EXTT2=
EXTT3=
EXTT4=
EXTT5=
EXTT6=
EXTT7=
EXTT8=
EXTT9=
EXTT10=
PLAYORDER=
